<?xml version="1.0" encoding="UTF-8" standalone="no"?>
<!-- Created with Inkscape (http://www.inkscape.org/) -->

<svg
   width="102mm"
   height="124mm"
   viewBox="0 0 102 124"
   version="1.1"
   id="svg1"
   xml:space="preserve"
   xmlns="http://www.w3.org/2000/svg"
   xmlns:svg="http://www.w3.org/2000/svg"><defs
     id="defs1" /><g
     id="layer3"><path
       id="rect1"
       style="display:inline;fill:#4df18a;fill-opacity:1;stroke-width:0.264583"
       d="m 49.025948,2.4597982 c -4.45721,0.955249 -8.62858,2.4192381 -11.97963,3.3434651 H 19.656165 c -3.84884,0 -6.94738,3.8731711 -6.94738,8.6842247 v 2.326473 z m 21.018872,3.3434651 7.33547,18.3947427 12.096936,0.02325 v -9.733773 c 0,-4.8110536 -3.09854,-8.6842247 -6.94738,-8.6842247 z M 81.133032,27.414864 79.9915,30.744893 89.477226,54.531555 V 27.430884 Z M 12.708785,69.274841 v 40.044589 c 0,4.81105 3.09854,8.6837 6.94738,8.6837 h 12.485026 z m 76.768441,37.717599 -36.145598,14.66422 c 4.23379,-1.26418 7.690717,-2.425 11.729517,-3.40806 l 17.468701,-0.24547 c 3.84845,-0.0541 6.94738,-3.87265 6.94738,-8.6837 z" /><path
       d="m 8.4447859,24.064211 40.3438321,0.07809 -0.0063,3.209886 -13.405979,-0.02594 21.787513,59.582596 0.251757,4.85e-4 20.381555,-59.500982 -13.657739,-0.02643 0.0063,-3.209884 25.330224,0.04903 4.565748,0.0088 -0.0063,3.209883 -4.559706,-0.0088 1.6e-5,-3.238799 -12.13717,-0.05898 2.646369,6.630477 -27.335383,79.738617 -1.69935,-0.003 -31.18267,-83.203072 -11.3290038,-0.02192 z"
       id="text37"
       style="font-size:70.2199px;font-family:'Bodoni MT';-inkscape-font-specification:'Bodoni MT';fill:#4df18a;fill-opacity:1;stroke-width:1.7162"
       aria-label="V" /></g></svg>
